HIERARCHY
ROOT Hips
{
    OFFSET 0.000000 0.000000 0.000000
    CHANNELS 6 Xposition Yposition Zposition Zrotation Xrotation Yrotation
    JOINT Spine
    {
        OFFSET -0.000000 7.246840 0.000000
        CHANNELS 3 Zrotation Xrotation Yrotation
        JOINT Spine1
        {
            OFFSET -0.000000 20.289354 0.000000
            CHANNELS 3 Zrotation Xrotation Yrotation
            JOINT Neck
            {
                OFFSET -0.000000 20.206032 1.836912
                CHANNELS 3 Zrotation Xrotation Yrotation
                JOINT Head
                {
                    OFFSET -0.000000 12.372654 -1.767522
                    CHANNELS 3 Zrotation Xrotation Yrotation
                    End Site
                    {
                        OFFSET -0.000000 22.094025 0.000000
                    }
                }
            }
            JOINT LeftShoulder
            {
                OFFSET 3.465871 17.201674 -0.568930
                CHANNELS 3 Zrotation Xrotation Yrotation
                JOINT LeftArm
                {
                    OFFSET 14.070313 0.000000 0.000000
                    CHANNELS 3 Zrotation Xrotation Yrotation
                    JOINT LeftForeArm
                    {
                        OFFSET 26.549477 0.000000 0.000000
                        CHANNELS 3 Zrotation Xrotation Yrotation
                        JOINT LeftHand
                        {
                            OFFSET 18.880413 0.000000 0.000000
                            CHANNELS 3 Zrotation Xrotation Yrotation
                            End Site
                            {
                                OFFSET 13.256415 0.000000 0.000000
                            }
                        }
                    }
                }
            }
            JOINT RightShoulder
            {
                OFFSET -3.526370 17.201674 -0.568930
                CHANNELS 3 Zrotation Xrotation Yrotation
                JOINT RightArm
                {
                    OFFSET -14.070313 0.000000 0.000000
                    CHANNELS 3 Zrotation Xrotation Yrotation
                    JOINT RightForeArm
                    {
                        OFFSET -26.549477 0.000000 0.000000
                        CHANNELS 3 Zrotation Xrotation Yrotation
                        JOINT RightHand
                        {
                            OFFSET -18.880413 0.000000 0.000000
                            CHANNELS 3 Zrotation Xrotation Yrotation
                            End Site
                            {
                                OFFSET -13.256415 0.000000 0.000000
                            }
                        }
                    }
                }
            }
        }
    }
    JOINT LeftUpLeg
    {
        OFFSET 8.837609 0.000000 0.000000
        CHANNELS 3 Zrotation Xrotation Yrotation
        JOINT LeftLeg
        {
            OFFSET -0.000000 -41.345005 0.000000
            CHANNELS 3 Zrotation Xrotation Yrotation
            JOINT LeftFoot
            {
                OFFSET -0.000000 -35.500874 0.000000
                CHANNELS 3 Zrotation Xrotation Yrotation
                JOINT LeftToeBase
                {
                    OFFSET -0.000000 -5.744446 13.256415
                    CHANNELS 3 Zrotation Xrotation Yrotation
                    End Site
                    {
                        OFFSET -0.000000 0.000000 3.535044
                    }
                }
            }
        }
    }
    JOINT RightUpLeg
    {
        OFFSET -8.837609 0.000000 0.000000
        CHANNELS 3 Zrotation Xrotation Yrotation
        JOINT RightLeg
        {
            OFFSET -0.000000 -41.345005 0.000000
            CHANNELS 3 Zrotation Xrotation Yrotation
            JOINT RightFoot
            {
                OFFSET -0.000000 -35.500874 0.000000
                CHANNELS 3 Zrotation Xrotation Yrotation
                JOINT RightToeBase
                {
                    OFFSET -0.000000 -5.744446 13.256415
                    CHANNELS 3 Zrotation Xrotation Yrotation
                    End Site
                    {
                        OFFSET -0.000000 0.000000 3.535044
                    }
                }
            }
        }
    }
}
MOTION
Frames:    13
Frame Time:    0.010000
0.463650    82.373390    -15.831050    2.833784    1.673637    -0.269597    -3.177061    -12.183871    -0.260034    -1.528871    3.551528    0.126510    3.447306    31.349525    -1.548138    1.887740    -14.646260    -0.592497    21.245083    2.331209    7.620199    -35.212593    5.317008    -4.300806    7.956982    -11.488089    -8.712885    -27.893801    -10.819570    -0.298986    -16.376011    1.883155    9.132279    22.938131    5.605186    1.953474    -5.132007    -10.517483    5.673565    13.009559    -8.570810    14.994514    -0.374697    7.510997    -0.132875    -1.735581    -8.268498    -5.621264    3.555066    0.428023    0.415637    -1.124980    -1.133248    1.585674    -8.056447    2.235013    -1.121469    5.133352    -0.165397    4.646931    0.333436    -6.118956    -10.954328    -0.529508    0.422191    0.945268    
0.465491    82.373016    -15.828176    2.835608    1.679112    -0.276834    -3.172279    -12.187401    -0.260243    -1.539119    3.544565    0.126089    3.460483    31.349159    -1.544665    1.882244    -14.638209    -0.588493    21.245771    2.341763    7.635364    -35.204086    5.304857    -4.326282    7.943180    -11.453614    -8.697404    -27.820969    -10.786323    -0.302979    -16.357304    1.870527    9.142070    22.941587    5.630333    1.933533    -5.129501    -10.543244    5.684422    13.003151    -8.597832    14.988985    -0.382838    7.503602    -0.105937    -1.706918    -8.258727    -5.735242    3.519922    0.425751    0.514229    -1.113964    -1.151371    1.570322    -8.062467    2.236147    -1.109530    5.138471    -0.173713    4.670811    0.363028    -6.124710    -10.979208    -0.523582    0.434726    0.934565    
0.466609    82.372780    -15.824888    2.835909    1.679622    -0.280351    -3.163798    -12.189548    -0.258161    -1.557646    3.543359    0.128706    3.476622    31.340536    -1.555102    1.892379    -14.619061    -0.594850    21.272076    2.306634    7.596387    -35.221306    5.336182    -4.258113    7.948716    -11.444132    -8.707551    -27.798141    -10.765523    -0.345163    -16.340078    1.882725    9.141450    22.944338    5.625010    1.931131    -5.120569    -10.561119    5.682803    13.011798    -8.613043    15.007630    -0.379020    7.505075    -0.115803    -1.738230    -8.256121    -5.637812    3.555691    0.420531    0.424041    -1.120628    -1.149233    1.579694    -8.067473    2.240223    -1.122040    5.146666    -0.182393    4.649710    0.338434    -6.113588    -10.946480    -0.536762    0.423918    0.958200    
0.466591    82.372459    -15.821690    2.840262    1.680379    -0.288250    -3.172059    -12.194388    -0.259795    -1.551257    3.552770    0.127392    3.476028    31.323647    -1.546849    1.897037    -14.603919    -0.585968    21.272104    2.337100    7.624177    -35.220654    5.350060    -4.304235    7.951169    -11.457011    -8.693058    -27.771832    -10.774418    -0.365328    -16.331757    1.874359    9.144268    22.948160    5.601820    1.932738    -5.123635    -10.555066    5.670831    13.061220    -8.598180    15.030398    -0.381854    7.507394    -0.116601    -1.734487    -8.254373    -5.674650    3.561785    0.418927    0.468908    -1.116962    -1.159151    1.574622    -8.073082    2.243491    -1.103552    5.150051    -0.190475    4.669488    0.336594    -6.114162    -10.977844    -0.526187    0.447765    0.939084    
0.467980    82.372498    -15.816768    2.840508    1.680957    -0.294939    -3.170616    -12.202749    -0.258041    -1.530611    3.562154    0.129105    3.404680    31.308010    -1.528738    1.956513    -14.581552    -0.562832    21.234596    2.322001    7.607824    -35.196926    5.360987    -4.271867    7.937034    -11.487133    -8.716310    -27.741337    -10.797491    -0.392841    -16.356220    1.866251    9.136779    22.964911    5.642881    1.935909    -5.129584    -10.577926    5.677317    13.126935    -8.612125    15.028618    -0.385544    7.510916    -0.117913    -1.718653    -8.252756    -5.702543    3.552533    0.411308    0.510160    -1.111767    -1.132334    1.567042    -8.077964    2.239681    -1.192304    5.155786    -0.171179    4.751835    0.338006    -6.120117    -10.971387    -0.547312    0.435135    0.976915    
0.467522    82.371727    -15.814689    2.838274    1.682432    -0.304195    -3.154546    -12.202519    -0.254523    -1.562131    3.560155    0.131186    3.458955    31.294531    -1.542693    1.916979    -14.559318    -0.580612    21.260414    2.317928    7.615705    -35.197533    5.389354    -4.276264    7.908887    -11.546552    -8.725350    -27.659109    -10.854179    -0.412202    -16.335321    1.877909    9.135682    22.975603    5.635766    1.942639    -5.135392    -10.567636    5.688652    13.199096    -8.591018    15.032307    -0.381739    7.509851    -0.110797    -1.727430    -8.251443    -5.667365    3.534953    0.409132    0.475237    -1.108481    -1.162445    1.562698    -8.076034    2.238609    -1.187135    5.156810    -0.171256    4.756078    0.328805    -6.119159    -10.961263    -0.519567    0.432271    0.927423    
0.468292    82.372208    -15.810910    2.837719    1.683105    -0.308695    -3.160329    -12.208942    -0.258331    -1.547876    3.569109    0.128887    3.446144    31.280865    -1.538420    1.924764    -14.545509    -0.576787    21.256027    2.327018    7.632469    -35.199875    5.395037    -4.291558    7.911663    -11.570693    -8.735128    -27.697708    -10.876324    -0.416473    -16.340761    1.870376    9.130815    22.985147    5.717662    1.937990    -5.142338    -10.587946    5.722751    13.241375    -8.605113    15.022588    -0.381054    7.508987    -0.105029    -1.741035    -8.244533    -5.620974    3.569489    0.398338    0.414785    -1.118130    -1.149656    1.576177    -8.077275    2.253736    -1.111807    5.157983    -0.208197    4.692684    0.333354    -6.110036    -10.969392    -0.529252    0.421006    0.944824    
0.470408    82.371910    -15.806940    2.837697    1.679904    -0.321426    -3.154001    -12.209115    -0.252317    -1.538000    3.569829    0.133323    3.384083    31.275345    -1.527491    1.991048    -14.528007    -0.557542    21.233322    2.330661    7.625301    -35.166195    5.385775    -4.309889    7.891717    -11.534006    -8.689952    -27.800690    -10.838140    -0.439513    -16.357141    1.885460    9.139362    23.003897    5.711958    1.925358    -5.193698    -10.536770    5.724621    13.434725    -8.519210    15.075233    -0.383636    7.515983    -0.102488    -1.730786    -8.246483    -5.660565    3.537013    0.398705    0.461207    -1.124992    -1.141068    1.585766    -8.082592    2.261839    -1.081799    5.165486    -0.221872    4.668098    0.335823    -6.094142    -10.968077    -0.539437    0.429085    0.962922    
0.471047    82.371475    -15.804583    2.840516    1.680110    -0.329689    -3.149698    -12.213094    -0.251967    -1.562992    3.576491    0.134333    3.444649    31.280750    -1.541847    1.946700    -14.540881    -0.574766    21.257858    2.353159    7.644557    -35.178272    5.384886    -4.337034    7.884316    -11.564347    -8.720718    -27.764969    -10.872152    -0.418999    -16.316715    1.884681    9.140864    23.001316    5.723210    1.925770    -5.198564    -10.535056    5.740557    13.386457    -8.521342    15.088798    -0.386953    7.516461    -0.084514    -1.727123    -8.241488    -5.699415    3.546040    0.405958    0.498184    -1.127256    -1.152746    1.589071    -8.087993    2.264795    -1.087721    5.172984    -0.228676    4.677807    0.337261    -6.094256    -10.967838    -0.534778    0.445052    0.954443    
0.469873    82.371399    -15.801692    2.838552    1.678589    -0.333687    -3.155467    -12.210955    -0.253102    -1.542106    3.577257    0.133129    3.419755    31.272690    -1.543083    1.960152    -14.535255    -0.576608    21.251745    2.336445    7.637908    -35.186302    5.408464    -4.314168    7.882967    -11.552639    -8.742288    -27.774591    -10.861667    -0.408048    -16.328079    1.886597    9.131232    23.014179    5.761249    1.940930    -5.188118    -10.546885    5.740572    13.279684    -8.544276    15.120109    -0.384158    7.521546    -0.099549    -1.711390    -8.319630    -5.892887    3.514291    0.491015    0.709380    -1.104009    -1.157990    1.556351    -8.086390    2.271710    -1.089786    5.169882    -0.238546    4.672554    0.346787    -6.096925    -10.952820    -0.531368    0.441764    0.948391    
0.471508    82.371506    -15.798563    2.842548    1.679874    -0.339228    -3.157560    -12.216252    -0.250626    -1.540847    3.585237    0.135716    3.434530    31.244310    -1.548614    1.940306    -14.501286    -0.586938    21.253010    2.330806    7.634082    -35.197426    5.394726    -4.310701    7.902639    -11.517982    -8.750675    -27.814760    -10.830800    -0.383060    -16.321741    1.878585    9.120267    23.030973    5.832189    1.944722    -5.135937    -10.675131    5.771017    12.972222    -8.716307    15.112283    -0.388919    7.520816    -0.082587    -1.721987    -8.308944    -5.870229    3.530062    0.476905    0.675344    -1.118440    -1.146945    1.576588    -8.093158    2.275809    -1.086385    5.175019    -0.248643    4.654926    0.341670    -6.084300    -10.932830    -0.527565    0.447322    0.941548    
0.470875    82.371437    -15.796870    2.840004    1.683211    -0.342680    -3.191699    -12.215553    -0.262489    -1.460416    3.584515    0.124610    3.388338    31.231686    -1.541416    1.922069    -14.493430    -0.591745    21.205021    2.358571    7.669710    -35.203396    5.393277    -4.350558    7.878344    -11.545237    -8.761408    -27.709105    -10.848087    -0.430596    -16.367378    1.884624    9.131532    23.037334    5.861293    1.941893    -5.124068    -10.713390    5.786816    12.931654    -8.758633    15.124750    -0.387536    7.517644    -0.089217    -1.728724    -8.234293    -5.683454    3.560504    0.387364    0.501868    -1.120940    -1.118699    1.579839    -8.090559    2.274305    -1.081199    5.174156    -0.255658    4.662190    0.325076    -6.075535    -10.943410    -0.539287    0.425956    0.962687    
0.472404    82.371147    -15.793458    2.838442    1.682341    -0.345743    -3.189826    -12.219221    -0.259956    -1.453011    3.593826    0.127200    3.355098    31.219711    -1.537338    1.961464    -14.486533    -0.582557    21.210434    2.329229    7.658608    -35.232067    5.395117    -4.326711    7.888370    -11.608494    -8.821692    -27.845036    -10.928187    -0.339847    -16.360424    1.880770    9.125286    23.038052    5.853461    1.949868    -5.141757    -10.730493    5.765953    12.957565    -8.771412    15.133694    -0.390029    7.521479    -0.076298    -1.716830    -8.233041    -5.735513    3.545638    0.384392    0.540753    -1.126967    -1.131575    1.588458    -8.090824    2.281697    -1.083818    5.177475    -0.263908    4.644386    0.349221    -6.073459    -10.909809    -0.535301    0.460932    0.955214    
